# xmcd
# Track frame offsets:
# 150
# 11820
# 28157
# 48045
# 67925
# 84892
# 96492
# 112762
# 132597
# 152550
#
# Disc length: 2261 seconds
# Revision: 0
# Processed by: cddbd v1.5.1PL2 Copyright (c) Steve Scherf et al.
# Submitted via: VisiTrax 2.9.5.181 - For more info visit www.synapsa.com
#
DISCID=7408d30a
DTITLE=Garth Brooks - Songs of Garth Brooks (karaoke)
DYEAR=1998
DGENRE=Country
TTITLE0=Long Neck Bottle (karaoke version)
TTITLE1=In Another's Eyes (karaoke version)
TTITLE2=Friends in Low Places (karaoke version)
TTITLE3=Shameless (karaoke version)
TTITLE4=The Dance (karaoke version)
TTITLE5=Long Neck Bottle (vocal version)
TTITLE6=In Another's Eyes (vocal version)
TTITLE7=Friends in Low Places (vocal version)
TTITLE8=Shameless (vocal version)
TTITLE9=The Dance (vocal version)
EXTD=
EXTT0=
EXTT1=
EXTT2=
EXTT3=
EXTT4=
EXTT5=
EXTT6=
EXTT7=
EXTT8=
EXTT9=
PLAYORDER=
